<svg width="1430" height="564" viewBox="0 0 1430 564" fill="none" xmlns="http://www.w3.org/2000/svg">
<g clip-path="url(#clip0_6522_2619)">
<path d="M236.067 66.9558C166.597 61.4222 131.84 91.4416 131.84 157.014V168.865H236.067C236.067 205.525 206.38 235.221 169.732 235.221H131.84V563.775H63.154V235.175H0V168.819H63.154V156.968C63.154 50.3551 124.741 -6.50195 236.067 0.599422V66.9558Z" fill="#E10101"/>
<path d="M427.373 563.683C381.828 563.683 342.553 548.097 310.699 516.233C278.892 484.415 263.265 445.726 263.265 399.521C263.265 353.316 278.846 314.628 310.699 282.81C342.507 250.992 381.828 235.406 427.373 235.406C472.917 235.406 512.239 250.992 544.046 282.81C575.854 314.628 592.08 353.316 592.08 399.521C592.08 445.726 575.854 484.369 544.046 516.233C512.239 548.051 472.917 563.683 427.373 563.683ZM505.97 478.789C527.175 457.577 537.777 431.385 537.777 399.521C537.777 367.657 527.175 341.465 505.97 320.253C484.765 299.041 458.581 288.435 427.373 288.435C396.165 288.435 370.626 299.041 349.375 320.253C328.17 341.465 317.568 367.703 317.568 399.521C317.568 431.339 328.17 457.577 349.375 478.789C370.58 500.001 396.764 510.607 427.373 510.607C457.982 510.607 484.765 500.001 505.97 478.789Z" fill="#E10101"/>
<path d="M701.793 431.57C706.772 457.439 701.562 480.772 684.875 500.969C679.896 506.964 674.734 512.774 669.524 518.492C668.787 517.754 668.003 517.017 667.266 516.279C635.458 484.461 619.831 445.772 619.831 399.613C619.831 371.669 625.547 346.492 637.118 323.896C644.632 309.14 654.681 295.491 667.266 282.902C699.073 251.084 738.395 235.452 783.939 235.452C806.297 235.452 827.133 239.233 846.31 246.842C855.76 250.577 864.795 255.234 873.415 260.814C861.706 266.209 849.997 271.604 838.427 277.276C800.673 295.814 765.085 317.809 733.001 345.246C706.218 368.118 694.97 396.662 701.793 431.57Z" fill="#E10101"/>
<path d="M866.177 292.355C875.397 286.96 884.847 282.026 894.251 276.907C896.372 278.798 898.492 280.827 900.566 282.902C904.393 286.729 907.988 290.649 911.399 294.707C902.549 299.872 894.067 304.852 885.446 309.74C852.486 328.554 823.399 352.671 793.481 375.773C789.655 378.725 785.921 381.906 781.957 384.627C775.365 389.146 767.897 387.993 763.471 382.183C759.138 376.373 759.922 369.548 765.776 364.245C796.524 336.531 830.452 313.198 866.177 292.355Z" fill="#E10101"/>
<path d="M842.898 377.203C868.943 354.331 897.524 334.825 926.658 316.196C930.945 323.435 934.633 330.952 937.675 338.745C914.304 355.945 890.609 372.822 867.561 390.529C853.869 400.997 841.607 413.263 828.654 424.607C825.704 427.143 822.615 429.679 819.204 431.478C812.935 434.89 807.587 433.783 803.899 428.711C799.935 423.362 799.889 417.69 804.683 413.032C817.176 400.905 829.76 388.685 842.898 377.203Z" fill="#E10101"/>
<path d="M948.6 399.614C948.6 409.574 947.863 419.165 946.342 428.388C940.902 462.096 925.551 491.286 900.566 516.279C868.759 548.097 829.438 563.729 783.939 563.729C766.514 563.729 750.057 561.423 734.522 556.812C724.15 553.769 714.239 549.665 704.789 544.546C710.92 537.122 717.42 529.882 724.288 522.965C735.536 511.529 748.905 504.659 764.993 503.275C772.368 502.63 779.652 501.569 787.028 500.877C806.85 499.033 822.846 489.718 836.214 475.377C859.632 450.338 882.312 424.515 906.513 400.167C918.637 387.947 932.19 377.203 945.512 366.136C947.586 376.834 948.6 387.993 948.6 399.614Z" fill="#E10101"/>
<path d="M1305.77 0V563.683H1251.6V502.03C1224.82 543.117 1185.59 563.683 1133.91 563.683C1090.31 563.683 1052.97 548.097 1022.45 516.325C991.933 484.553 976.352 445.311 976.352 399.844C976.352 354.377 991.933 315.78 1022.45 284.009C1052.97 252.237 1090.31 236.051 1133.91 236.051C1185.59 236.051 1224.82 256.618 1251.6 297.704V54.1825C1251.6 24.2553 1275.85 0 1305.77 0ZM1219.84 479.619C1241 457.808 1251.6 431.662 1251.6 399.89C1251.6 368.119 1241 341.973 1219.84 320.807C1198.68 298.995 1172.54 288.436 1140.78 288.436C1109.02 288.436 1083.48 299.042 1062.32 320.807C1041.17 341.973 1030.56 368.165 1030.56 399.89C1030.56 431.616 1041.17 457.808 1062.32 479.619C1083.48 500.785 1109.62 511.391 1140.78 511.391C1171.94 511.391 1198.68 500.785 1219.84 479.619Z" fill="#E10101"/>
<path d="M1430 168.727H1361.31V563.729H1430V168.727Z" fill="#E10101"/>
<path d="M1361.31 86.277V0H1430V17.569C1430 55.5198 1399.25 86.277 1361.31 86.277Z" fill="#E10101"/>
</g>
<defs>
<clipPath id="clip0_6522_2619">
<rect width="1430" height="564" fill="white"/>
</clipPath>
</defs>
</svg>
