<?xml version="1.0" encoding="UTF-8"?>
<svg version="1.1" xmlns="http://www.w3.org/2000/svg" width="2000" height="576">
<path d="M0 0 C0.82838379 -0.03158203 1.65676758 -0.06316406 2.51025391 -0.09570312 C8.01838807 -0.04687018 11.37242526 1.32507501 15.75805664 4.61791992 C20.70851107 10.29577166 22.26799235 16.49445969 22.85546875 23.8515625 C22.97054024 25.15391342 22.97054024 25.15391342 23.0879364 26.48257446 C23.77716186 35.39757005 23.50171855 44.21963293 23.02972412 53.13809204 C22.86855873 56.18424514 22.72564016 59.23084432 22.58642578 62.27807617 C22.37552613 66.85517378 22.15698957 71.43182016 21.93310547 76.00830078 C21.33199273 88.36629945 20.78304163 100.72666409 20.24265766 113.08744812 C20.07666414 116.87636622 19.90775617 120.66510337 19.73135376 124.45355225 C19.27786681 134.19637378 18.87819053 143.9392018 18.5625 153.6875 C18.53946304 154.36641045 18.51642609 155.04532089 18.49269104 155.74480438 C18.33939176 160.34386773 18.23919281 164.94182718 18.1640625 169.54296875 C18.1090004 171.30148918 18.1090004 171.30148918 18.05282593 173.09553528 C17.85242506 179.27592008 17.85242506 179.27592008 20.85327148 184.41333008 C24.59291137 186.17210998 27.95032692 186.27833229 32 186.1875 C33.30855957 186.17372314 33.30855957 186.17372314 34.64355469 186.15966797 C44.56909109 185.90995854 54.44382774 184.84463485 64.3125 183.8125 C65.1461911 183.72572998 65.9798822 183.63895996 66.83883667 183.54956055 C81.72094332 182.52240548 81.72094332 182.52240548 95.5625 177.6875 C96.76253343 175.87148635 96.76253343 175.87148635 97.5625 173.6875 C97.90586395 172.92691599 98.24922791 172.16633198 98.60299683 171.38269997 C99.62470973 168.51275576 99.80435817 166.4117174 99.78955078 163.37680054 C99.78940979 162.32564056 99.7892688 161.27448059 99.78912354 160.19146729 C99.77879089 159.0485321 99.76845825 157.90559692 99.7578125 156.72802734 C99.75489197 155.51601654 99.75197144 154.30400574 99.7489624 153.05526733 C99.74135257 150.42351218 99.730131 147.79206257 99.71282959 145.16038132 C99.68570059 140.989957 99.67397741 136.81957509 99.66455078 132.64907837 C99.64048833 123.0358213 99.59649619 113.42267492 99.55209351 103.80949402 C99.5116309 95.01209905 99.47549517 86.21474294 99.45566368 77.41727412 C99.44576322 73.2814426 99.42613918 69.14581144 99.39880371 65.01006007 C99.38021773 61.81451078 99.37482156 58.61893119 99.3671875 55.42333984 C99.35685486 54.29255005 99.34652222 53.16176025 99.33587646 51.9967041 C99.33433535 40.32197283 100.08437699 31.26035064 108.5625 22.6875 C120.80695604 11.01052321 133.65669072 6.50927384 150.3125 6.5 C151.45460937 6.48775391 152.59671875 6.47550781 153.7734375 6.46289062 C160.34901455 6.45155342 166.24727989 6.78454808 172.5625 8.6875 C178.90172933 15.51436236 178.86396074 24.60135464 178.828125 33.3984375 C178.83208282 34.97680138 178.83208282 34.97680138 178.83612061 36.58705139 C178.83998548 40.07898301 178.82714196 43.57059997 178.8125 47.0625 C178.80984131 48.87828049 178.80984131 48.87828049 178.80712891 50.73074341 C178.76736801 74.22006566 178.12332108 97.68315811 177.27441406 121.15576172 C176.80901115 134.22186247 176.42906062 147.28822245 176.33132935 160.36262703 C176.31897872 161.78764226 176.30163335 163.21262483 176.27877808 164.6375103 C176.11272804 175.59346909 177.52740608 184.10128092 182.5 193.875 C186.8166808 203.01557159 191.833283 214.55656826 188.5625 224.6875 C185.83467999 230.35297233 183.09184902 231.48349375 177.5625 233.6875 C176.75763586 249.03028368 176.33804575 264.35756243 176.11694336 279.71926689 C176.06093629 283.60457078 176.00067578 287.48979024 175.93945312 291.37501526 C175.80994873 299.6249529 175.68593434 307.87496965 175.5625 316.125 C175.41920736 325.69936934 175.27360027 335.27369374 175.12280273 344.84794807 C175.06427833 348.63113705 175.00957001 352.41436772 174.95507812 356.19761658 C174.85250827 363.0282963 174.71929898 369.85785905 174.5625 376.6875 C174.53897461 377.78460926 174.51544922 378.88171852 174.49121094 380.01207352 C174.41680009 383.17422184 174.32148465 386.33499669 174.21875 389.49633789 C174.19816528 390.42739821 174.17758057 391.35845854 174.15637207 392.31773281 C173.74795679 403.11762141 168.84262639 410.8571882 161.0625 418.1875 C147.50913722 429.49487695 129.24700509 437.36218378 111.5 437 C105.51454452 436.36324942 101.17224796 434.46235031 97.125 430 C92.52552133 420.24910522 93.35489467 409.92832141 93.515625 399.421875 C93.53613833 397.60493801 93.55587624 395.78799212 93.57489014 393.97103882 C93.62880787 389.12615497 93.69694477 384.28157332 93.7689209 379.4369278 C93.81252901 376.43550308 93.85221805 373.43405164 93.890625 370.43255615 C94.33480313 335.91803955 95.12138418 301.42933925 97.1171875 266.96484375 C97.47975994 260.68140944 97.71991789 254.41947447 97.6875 248.125 C97.69136719 247.30837891 97.69523438 246.49175781 97.69921875 245.65039062 C98.05742642 241.8624948 98.05742642 241.8624948 96.5625 238.6875 C89.46964185 239.06080832 82.84179472 240.80534515 76.015625 242.65234375 C62.90325494 245.86381611 49.65646148 246.25116292 36.23461914 246.71655273 C33.69349199 246.80760289 31.15360082 246.91628108 28.61328125 247.02734375 C27.83318192 247.04933334 27.05308258 247.07132294 26.24934387 247.09397888 C23.84143233 247.17195555 23.84143233 247.17195555 20.5625 247.6875 C17.91999466 251.65125801 18.30490623 255.04594869 18.35131836 259.64331055 C18.35328972 261.019916 18.35328972 261.019916 18.3553009 262.42433167 C18.36181535 265.474397 18.38228829 268.52421494 18.40234375 271.57421875 C18.40862131 273.70961739 18.41385902 275.84501933 18.41810608 277.98042297 C18.43144193 283.62821723 18.45584728 289.27590443 18.48345947 294.92364502 C18.52641551 303.88687438 18.5566917 312.85012371 18.5795002 321.81342506 C18.58951551 324.91022401 18.60660526 328.0069215 18.62449646 331.10368347 C18.65142571 336.96566534 18.62042981 342.82579492 18.5625 348.6875 C18.55614155 349.7430521 18.5497831 350.7986042 18.54323196 351.88614273 C18.51384079 355.10595099 18.44839867 358.32320078 18.37329102 361.54223633 C18.36768378 362.51178851 18.36207655 363.48134069 18.3562994 364.48027325 C18.09106832 372.9848202 15.27992853 379.85483719 9.625 386.25 C-4.52819004 399.29313592 -23.454035 407.72665424 -42.74609375 407.0390625 C-48.82277287 406.46033116 -52.38273134 404.74226866 -56.75 400.375 C-60.39497612 394.57003803 -61.83139343 390.32346701 -61.58203125 383.44921875 C-61.56101349 382.75301926 -61.53999573 382.05681976 -61.51834106 381.33952332 C-61.44415559 379.01721942 -61.34688672 376.69645881 -61.25 374.375 C-61.19270955 372.6961729 -61.13684092 371.01729678 -61.08227539 369.33837891 C-60.76191497 359.8516088 -60.33843947 350.36929728 -59.9140625 340.88671875 C-58.97879751 319.88392702 -58.16697934 298.88117424 -57.97415161 277.85650635 C-57.95003503 275.60681702 -57.91570726 273.35721007 -57.87033081 271.10784912 C-57.61934026 257.98293409 -58.17325538 248.42859502 -64.4375 236.6875 C-65.20028577 234.83014508 -65.93419888 232.96055652 -66.6328125 231.078125 C-66.95636719 230.22089844 -67.27992187 229.36367187 -67.61328125 228.48046875 C-68.08314453 227.22169922 -68.08314453 227.22169922 -68.5625 225.9375 C-69.21008044 224.21321954 -69.85851583 222.48925993 -70.5078125 220.765625 C-70.82008789 219.93095703 -71.13236328 219.09628906 -71.45410156 218.23632812 C-72.13193575 216.47947885 -72.83890471 214.73368761 -73.56933594 212.99804688 C-74.11895996 211.6919043 -74.11895996 211.6919043 -74.6796875 210.359375 C-75.01597168 209.58174805 -75.35225586 208.80412109 -75.69873047 208.00292969 C-76.4375 205.6875 -76.4375 205.6875 -76.4375 200.6875 C-72.8075 201.0175 -69.1775 201.3475 -65.4375 201.6875 C-65.1075 200.0375 -64.7775 198.3875 -64.4375 196.6875 C-63.0265663 193.70520574 -61.47228834 190.82345768 -59.91015625 187.91796875 C-56.96270746 181.452345 -56.14018842 175.3714331 -56.13452148 168.36767578 C-56.12608215 167.57565765 -56.11764282 166.78363953 -56.10894775 165.96762085 C-56.08325063 163.35601109 -56.07101153 160.74451626 -56.05859375 158.1328125 C-56.04235529 156.27187278 -56.02516911 154.41094111 -56.00709534 152.55001831 C-55.96143981 147.63100103 -55.92671637 142.71197068 -55.89489746 137.79284668 C-55.83695827 129.11440848 -55.76027057 120.43610204 -55.68359375 111.7578125 C-55.67536968 110.80543953 -55.66714561 109.85306656 -55.65867233 108.8718338 C-55.53197409 94.53434924 -55.30483987 80.20138867 -54.97265625 65.8671875 C-54.95373259 65.01317478 -54.93480892 64.15916206 -54.91531181 63.27927017 C-54.79065965 57.7473032 -54.63280065 52.21742207 -54.4375 46.6875 C-54.41104778 45.89747841 -54.38459557 45.10745682 -54.35734177 44.29349518 C-54.27360133 41.96452514 -54.17196238 39.63705226 -54.06420898 37.30908203 C-54.04009728 36.61490614 -54.01598558 35.92073025 -53.99114323 35.20551872 C-53.6652514 28.99068714 -51.70202085 25.10198202 -47.4375 20.6875 C-46.88191406 20.09066406 -46.32632813 19.49382813 -45.75390625 18.87890625 C-33.61917155 7.16171081 -16.69297261 0.38127254 0 0 Z " fill="#F26F31" transform="translate(76.4375,-0.6875)"/>
<path d="M0 0 C0.67417969 0.57234375 1.34835937 1.1446875 2.04296875 1.734375 C16.55845613 15.15372718 25.04264967 34.81808094 26.12988281 54.33105469 C27.23697654 83.01484673 21.03937817 112.63685942 2 135 C0.55676985 136.3908443 -0.90190958 137.76582167 -2.375 139.125 C-8.82594161 145.26071235 -12.75072814 153.2732447 -17 161 C-9.2584107 167.02538155 -0.49550698 171.80928404 8.125 176.4453125 C21.88233157 183.88473908 35.00706843 191.8875601 47 202 C48.28583984 203.06541016 48.28583984 203.06541016 49.59765625 204.15234375 C59.42855458 212.58941939 67.27783727 222.87876017 69 236 C70.3854065 261.38837953 57.9518421 281.32161514 42 300 C41.14492473 301.08261631 40.29058355 302.16581355 39.4375 303.25 C36.23346434 306.86480947 32.70594245 309.91171462 29 313 C28.29359375 313.60585938 27.5871875 314.21171875 26.859375 314.8359375 C0.96694031 336.41296641 -31.90613422 350.27864138 -65 356 C-65.94311035 356.17515137 -66.8862207 356.35030273 -67.85791016 356.53076172 C-77.95969334 358.21514354 -87.96223831 358.37230676 -98.18359375 358.37060547 C-101.09956053 358.37496199 -104.01398833 358.41135891 -106.9296875 358.44921875 C-143.15766505 358.66616077 -176.89975877 345.6122565 -203.0625 320.375 C-216.94157001 305.87168397 -224.73244557 288.81417909 -224.33984375 268.6875 C-223.13396593 244.58995812 -206.69273219 224.55021403 -189.6875 208.875 C-174.40924064 195.81019871 -156.94755668 185.68383091 -138 179 C-136.14375 178.34064453 -136.14375 178.34064453 -134.25 177.66796875 C-123.40819851 173.9815636 -112.27742692 171.88344908 -101 170 C-99.27910156 169.70996094 -99.27910156 169.70996094 -97.5234375 169.4140625 C-92.03441063 168.76901056 -86.52499751 168.68278177 -81.00195312 168.5703125 C-75.33783042 168.37200623 -70.4725073 167.47183396 -65.10473633 165.63427734 C-63 165 -63 165 -60 165 C-60 163.35 -60 161.7 -60 160 C-60.54520294 160.00666183 -61.09040588 160.01332367 -61.65213013 160.02018738 C-67.39611837 160.08725569 -73.13999301 160.13209253 -78.88427734 160.16479492 C-81.01974007 160.17975635 -83.15517275 160.20013284 -85.29052734 160.22631836 C-109.68727734 160.51770811 -131.16722391 156.82278313 -149.625 139.4609375 C-160.78726681 127.89477287 -168.25806385 112.54620817 -172 97 C-172.44666016 95.18242187 -172.44666016 95.18242187 -172.90234375 93.328125 C-178.80670393 66.70230366 -175.70752603 37.49382959 -162.125 13.6875 C-149.5990416 -5.931079 -133.03877546 -17.30496876 -110.4375 -22.6875 C-71.75435055 -30.35443052 -30.73062822 -26.253606 0 0 Z M-95.21972656 39.50024414 C-103.52852853 48.42352714 -105.12322723 57.97849914 -105 70 C-103.93844351 82.77134111 -98.5891217 89.87223847 -90 99 C-88.7634225 100.38927229 -87.53359377 101.78459894 -86.3125 103.1875 C-85.76078125 103.82042969 -85.2090625 104.45335937 -84.640625 105.10546875 C-82.0818636 108.06022894 -79.53863911 111.0279347 -77 114 C-63.66059054 104.84550331 -51.45963861 93.25556223 -48 77 C-45.99641561 66.18064429 -47.01774372 52.59909741 -52.640625 42.8671875 C-57.92663643 35.60651663 -63.54104428 28.7846586 -72.25 25.9375 C-82.02540558 26.10042343 -88.71224103 32.88510434 -95.21972656 39.50024414 Z M-121 236 C-121.95261719 236.44988281 -122.90523437 236.89976562 -123.88671875 237.36328125 C-137.11429317 244.06604317 -154.12839101 255.48935955 -161 269 C-161.90707493 273.41443133 -161.67933455 276.89293628 -159.3125 280.75 C-151.37395885 287.09220407 -139.57378783 289.06303323 -130 291.6875 C-128.92081299 291.9851123 -127.84162598 292.28272461 -126.72973633 292.58935547 C-116.20121257 295.39239883 -105.67508585 297.38960233 -94.75 297.25 C-93.54657959 297.23984863 -93.54657959 297.23984863 -92.31884766 297.22949219 C-58.87209911 296.66382446 -28.95764893 286.57214789 -5.46875 262.39453125 C-0.71270852 257.28178666 3.33885007 251.94398459 7 246 C-2.76890645 235.47286404 -19.3300302 230.08450601 -33 227 C-33.98009033 226.76893555 -33.98009033 226.76893555 -34.97998047 226.53320312 C-43.61212275 224.52241667 -52.14916732 223.36498279 -61 223 C-61.8765625 222.95875 -62.753125 222.9175 -63.65625 222.875 C-83.89887428 222.38722592 -102.91056619 227.23832187 -121 236 Z " fill="#F26F31" transform="translate(893,218)"/>
<path d="M0 0 C4.34978177 4.11338058 5.83817907 7.7107607 6.12939453 13.63012695 C6.13108643 15.04491333 6.13108643 15.04491333 6.1328125 16.48828125 C6.13498779 17.56924072 6.13716309 18.6502002 6.1394043 19.76391602 C6.13465088 20.93494873 6.12989746 22.10598145 6.125 23.3125 C6.12089111 24.55378662 6.11678223 25.79507324 6.11254883 27.07397461 C5.97283343 51.13657103 4.87574136 75.03255659 3.01635742 99.01782227 C0.39855092 125.67604952 0.39855092 125.67604952 11.39453125 149.3203125 C16.31470928 154.46794402 20.66462513 158.4602089 27.98046875 159.37109375 C36.73436756 159.55235597 42.99897572 158.15851911 49.80859375 152.49609375 C56.16583588 145.91690301 58.44975195 136.84304599 58.47546387 127.91877747 C58.45794067 126.96879379 58.44041748 126.01881012 58.42236328 125.04003906 C58.41842056 123.48904762 58.41842056 123.48904762 58.41439819 121.90672302 C58.40153019 118.52596863 58.36072794 115.1461518 58.3203125 111.765625 C58.30775435 109.39915957 58.29727994 107.03268225 58.28878784 104.66619873 C58.26229112 98.46112467 58.21347191 92.25645085 58.15808105 86.05157471 C58.07154927 76.10760355 58.0123173 66.16352312 57.9659996 56.21929169 C57.94561358 52.75429922 57.91151604 49.28963426 57.87600708 45.82476807 C57.86234833 43.69730925 57.84913092 41.56984754 57.83642578 39.44238281 C57.82295105 38.48430222 57.80947632 37.52622162 57.79559326 36.53910828 C57.77075885 29.21456675 58.29503741 23.08046273 63.47216797 17.39575195 C69.00898936 12.33758515 75.71314266 9.70542476 82.75 7.4375 C83.65451904 7.14157959 84.55903809 6.84565918 85.4909668 6.54077148 C91.86254595 4.52291152 98.26352059 2.89118005 104.8125 1.5625 C106.0195459 1.31681274 106.0195459 1.31681274 107.25097656 1.06616211 C113.45796356 -0.09813551 120.35549325 -1.37295287 126.25 1.5 C126.87390625 1.7784375 127.4978125 2.056875 128.140625 2.34375 C131.61627845 5.43971022 133.63626679 9.70901137 134.36401367 14.29275513 C134.49340248 16.81463756 134.50212973 19.30716705 134.4609375 21.83203125 C134.46071846 23.23700615 134.46071846 23.23700615 134.460495 24.67036438 C134.45316961 27.71827469 134.41526577 30.76486056 134.375 33.8125 C134.36058377 35.94189015 134.34683719 38.07128492 134.33374023 40.20068359 C134.21767058 53.77832207 133.72092697 67.30097807 132.81297302 80.84805298 C132.16767848 90.57683521 131.70712005 100.29973305 131.44921875 110.046875 C131.42834953 110.80822628 131.40748032 111.56957756 131.3859787 112.35400009 C131.01164476 126.38325676 130.91477668 140.41054022 130.87077522 154.44425583 C130.85933332 158.02084199 130.845145 161.59740765 130.83018494 165.17398071 C130.82034191 167.59124739 130.8105409 170.00851424 130.80078125 172.42578125 C130.79587457 173.63073935 130.79096788 174.83569744 130.78591251 176.07716942 C130.76244159 182.25217207 130.74800084 188.42700082 130.74951172 194.60205078 C130.75030432 200.70092269 130.72675535 206.79929583 130.6876297 212.89803696 C130.67730313 215.18216579 130.67554483 217.46635302 130.68328094 219.7504921 C130.76559647 246.6594252 124.89424142 269.25057368 106 289 C105.24332031 289.79792969 104.48664063 290.59585937 103.70703125 291.41796875 C73.89686051 320.40720536 22.89659196 331.26111812 -17.26855469 331.18334961 C-47.59810795 330.7536471 -77.82609598 323.41725197 -105 310 C-105.91845703 309.54963379 -106.83691406 309.09926758 -107.78320312 308.63525391 C-132.71253157 296.30670283 -153.37459429 282.95597855 -163.875 256.125 C-167.92398042 243.89598481 -168.6142525 231.7729688 -167 219 C-166.89816406 218.08347656 -166.79632812 217.16695312 -166.69140625 216.22265625 C-165.09523133 205.54309413 -158.38992525 198.34462009 -150 192 C-147.09179099 190.11142213 -144.11695122 188.51488188 -141 187 C-140.30390625 186.64164063 -139.6078125 186.28328125 -138.890625 185.9140625 C-127.25165638 180.26449014 -113.65549415 177.63402075 -101.125 181.5625 C-94.50979814 184.26958549 -91.56080078 188.2425853 -88.125 194.3125 C-86.4424818 199.82742078 -86.46519893 205.07530664 -87.5 210.734375 C-89.50452026 223.82639793 -89.15892731 237.85581398 -81.9375 249.25 C-66.98614448 268.8852864 -33.60083422 274.98384444 -10.54541016 278.359375 C13.47424821 281.67945275 13.47424821 281.67945275 36.25 275.25 C55.50080703 259.4993397 55.61316997 228.90170828 58 206 C58.40103387 201.338069 58.71341207 196.67025502 59 192 C57.95730957 192.29946533 57.95730957 192.29946533 56.89355469 192.60498047 C30.05034569 200.14585093 -0.62142269 201.27108159 -25.92285156 187.99072266 C-30.14264556 185.58272404 -34.0717625 182.85515799 -38 180 C-38.95390625 179.33484375 -39.9078125 178.6696875 -40.890625 177.984375 C-54.44047834 167.84134193 -67.04309613 150.28027094 -69.54804993 133.2807312 C-70.01761664 129.29379679 -70.1333901 125.36089493 -70.14526367 121.34423828 C-70.14862228 120.62405518 -70.1519809 119.90387207 -70.15544128 119.16186523 C-70.16487676 116.7979963 -70.16689218 114.43419907 -70.16796875 112.0703125 C-70.17119177 110.39525323 -70.17455658 108.72019422 -70.17805481 107.0451355 C-70.18403157 103.52992098 -70.18589674 100.01473096 -70.18530273 96.49951172 C-70.1852222 92.94867783 -70.19204709 89.39797493 -70.20581055 85.84716797 C-70.33402757 52.13775186 -70.33402757 52.13775186 -69.23828125 35.9921875 C-69.17730759 34.9733548 -69.11633392 33.95452209 -69.05351257 32.90481567 C-68.20422021 22.4828146 -63.97113362 15.33652082 -56.0625 8.4375 C-43.80620367 0.20486899 -12.9890499 -9.06212784 0 0 Z " fill="#F26F31" transform="translate(1217,187)"/>
<path d="M0 0 C3.69170664 3.69170664 5.12446791 6.83933114 5.1328125 12.01953125 C5.13410156 12.79490234 5.13539062 13.57027344 5.13671875 14.36914062 C5.13285156 15.17544922 5.12898438 15.98175781 5.125 16.8125 C5.12886719 17.60720703 5.13273437 18.40191406 5.13671875 19.22070312 C5.12945524 23.6114921 4.76092978 27.66676627 4 32 C2.20030106 59.99859491 13.13606824 80.58044176 31.15087891 101.3190918 C40.16714076 111.74914619 48.70854066 122.62387112 56.20814514 134.20050049 C59.32718476 139.00947308 62.54373792 143.74455021 65.80078125 148.4609375 C66.30371704 149.19078857 66.80665283 149.92063965 67.3248291 150.67260742 C68.54907499 152.44896421 69.7744212 154.22456258 71 156 C71.01030746 155.06881348 71.02061493 154.13762695 71.03123474 153.17822266 C71.13059123 144.24073334 71.23342117 135.30328926 71.33933926 126.36587524 C71.39364073 121.77518364 71.44687139 117.18448575 71.49731445 112.59375 C71.6980007 94.40153925 71.92323808 76.21267296 72.48046875 58.02734375 C72.51861191 56.75048706 72.55675507 55.47363037 72.59605408 54.15808105 C73.72082864 20.13540945 73.72082864 20.13540945 81.1484375 12.2734375 C96.16736061 1.94396717 122.68084769 3.52186389 140 4 C149.60115525 21.52529037 147.38298404 43.00045111 146.9309082 62.3015976 C146.8349087 66.61304682 146.76498825 70.92493711 146.69140625 75.23681641 C146.51036616 85.52756713 146.28958703 95.81730142 146.06321716 106.10713959 C145.95806017 110.91919497 145.85656597 115.7313272 145.75488281 120.54345703 C145.5892905 128.35857548 145.42329955 136.17368521 145.25610352 143.98876953 C145.23517293 144.96738071 145.21424234 145.9459919 145.1926775 146.95425797 C145.06495859 152.90556102 144.93387404 158.85678071 144.80071354 164.80796432 C144.321483 186.28909564 143.91814747 207.76858695 143.68359375 229.25390625 C143.67238117 230.28044815 143.66116859 231.30699005 143.64961624 232.36463928 C143.54319262 242.24566431 143.44690576 252.12674805 143.36512661 262.008008 C143.33488198 265.60006909 143.30168005 269.19210003 143.26817513 272.784132 C143.24701057 275.20377824 143.23068618 277.62342105 143.21470642 280.04310608 C143.15628361 287.28037393 143.00106558 294.50664991 142.61743164 301.73461914 C142.55149307 302.99109756 142.4855545 304.24757599 142.4176178 305.54212952 C140.97076498 317.5220539 132.56343614 327.44729988 123.6328125 335.015625 C112.00363771 343.78064101 99.33541238 349.57154965 84.40625 347.5078125 C79.68670593 346.51180482 76.24929416 345.24929416 72.75 341.75 C68.04900373 334.36272015 67.52100812 328.64927722 67.625 320 C67.63370117 318.19825317 67.63370117 318.19825317 67.64257812 316.36010742 C67.78831181 305.63856104 68.61184909 294.99431504 69.5 284.3125 C70.42687858 273.0866089 71.34141961 261.89368777 71.5 250.625 C71.53029297 249.65860596 71.56058594 248.69221191 71.59179688 247.6965332 C71.59666355 240.91907849 69.79450671 236.55991916 66 231 C65.52079102 230.29681641 65.04158203 229.59363281 64.54785156 228.86914062 C63.02224053 226.69995921 61.45608141 224.56653743 59.875 222.4375 C55.6585958 216.68351691 51.51078511 210.8992581 47.5 205 C43.63508748 199.32525974 39.66570258 193.738352 35.625 188.1875 C31.05325983 181.90714342 26.61088167 175.55348045 22.25 169.125 C17.36170126 161.92422446 12.34594635 154.87179141 7 148 C6.34128906 147.11054688 5.68257812 146.22109375 5.00390625 145.3046875 C3.06826763 143.07851442 1.71141701 142.06519954 -1 141 C-0.52023151 146.47946119 0.13756437 151.88336719 1.0246582 157.3125 C2.20406062 165.52249859 2.27208208 173.60689433 2.23046875 181.875 C2.22926941 183.49031538 2.22882537 185.10563146 2.2290802 186.72094727 C2.22752533 190.10290937 2.21933321 193.48476418 2.20581055 196.86669922 C2.1891475 201.07446766 2.18508202 205.28211659 2.18562126 209.48991394 C2.18508857 227.26919895 2.00190061 245.03870554 1.55078125 262.8125 C1.53148245 263.60687469 1.51218365 264.40124939 1.49230003 265.21969604 C0.73204327 295.75819254 0.73204327 295.75819254 -9.73828125 306.8671875 C-20.4033424 316.92439543 -34.82229758 323.64925388 -49.5625 324.4375 C-56.09717126 324.17515918 -62.69215274 322.08269143 -67.5625 317.6875 C-70.53243462 312.13501354 -71.25057183 306.82921838 -71.23046875 300.59765625 C-71.2304184 299.87486984 -71.23036804 299.15208344 -71.23031616 298.40739441 C-71.22663478 295.95893819 -71.20735406 293.51087531 -71.1875 291.0625 C-71.17984543 289.24772304 -71.17261813 287.43294425 -71.16577148 285.61816406 C-71.07763539 267.82034041 -70.76502724 250.02413693 -70.45957375 232.2289772 C-70.16860619 215.24028129 -69.93835103 198.25221295 -69.78125 181.26171875 C-69.76347494 179.35189813 -69.74569332 177.44207758 -69.72790527 175.53225708 C-69.71901527 174.57702211 -69.71012527 173.62178715 -69.70096588 172.63760567 C-69.36397407 136.46453827 -68.90949784 100.29711432 -68.12391281 64.13069534 C-68.06288532 61.26807429 -68.00522744 58.40540365 -67.94851685 55.54269409 C-67.85935576 51.07059311 -67.76082471 46.59879637 -67.65473938 42.12706566 C-67.61729186 40.4959177 -67.58274846 38.86469994 -67.55140686 37.23342323 C-67.13428004 15.89583458 -67.13428004 15.89583458 -62.375 9.6875 C-61.92898438 9.07261719 -61.48296875 8.45773438 -61.0234375 7.82421875 C-54.5970888 2.03058006 -46.87666138 0.98329991 -38.5625 -0.1875 C-37.48162109 -0.35185547 -36.40074219 -0.51621094 -35.28710938 -0.68554688 C-9.21726798 -4.59048976 -9.21726798 -4.59048976 0 0 Z " fill="#F26F31" transform="translate(1441,60)"/>
<path d="M0 0 C7.20465798 5.32844496 11.77082727 12.3575109 13.6875 21.0625 C14.13431614 25.52681288 14.11022172 29.95390444 14.0625 34.4375 C14.05917664 35.12203247 14.05585327 35.80656494 14.0524292 36.51184082 C13.9573913 53.95495008 13.08999474 71.38914068 12.3125 88.8125 C12.26509296 89.87996082 12.26509296 89.87996082 12.21672821 90.96898651 C11.45761768 108.00600787 10.57617792 125.02489886 9.31607056 142.03314209 C8.78881201 149.39168243 8.57883832 156.68547434 8.6875 164.0625 C9.68716797 163.13630859 9.68716797 163.13630859 10.70703125 162.19140625 C15.3943203 157.88434484 20.09568201 153.67412122 25.0625 149.6875 C35.05642081 141.57895716 44.2356513 132.86987976 52.66723633 123.13818359 C56.97954383 118.31865953 61.61486326 114.69401646 68.15625 113.6796875 C77.88932144 114.91503887 84.37423791 122.42208543 91.1875 128.9375 C91.89519531 129.60652344 92.60289062 130.27554688 93.33203125 130.96484375 C97.65219741 135.06386795 101.87874218 139.24115079 106.04101562 143.50048828 C107.61954506 145.14983508 107.61954506 145.14983508 109.6875 146.0625 C109.1118719 149.44334042 108.11010379 150.97493437 105.58984375 153.26953125 C104.64117432 154.14375732 104.64117432 154.14375732 103.67333984 155.03564453 C102.9973877 155.64263184 102.32143555 156.24961914 101.625 156.875 C100.93615723 157.50519043 100.24731445 158.13538086 99.53759766 158.78466797 C95.65931876 162.32179772 91.74349869 165.8140174 87.76171875 169.234375 C85.49108236 171.23561385 83.28019621 173.29319949 81.06762695 175.3581543 C76.61053854 179.5169463 72.14635659 183.57372344 67.375 187.375 C61.84307734 191.80861392 56.7516901 196.64804723 51.61914062 201.52978516 C46.86569155 206.02687612 41.99529521 210.21555946 36.82421875 214.23046875 C34.73942804 216.01797669 33.23489075 217.80401058 31.6875 220.0625 C38.99727426 226.76064384 38.99727426 226.76064384 46.4375 233.3125 C51.03665611 237.30848809 55.45967757 241.49201914 59.90600586 245.65600586 C68.26891902 253.48695088 76.71850505 261.21953342 85.24609375 268.87109375 C86.92843502 270.38116328 88.60795997 271.89437435 90.28515625 273.41015625 C91.13980469 274.18230469 91.99445313 274.95445312 92.875 275.75 C93.6896875 276.4925 94.504375 277.235 95.34375 278 C96.82161379 279.30052014 98.33934075 280.55826621 99.90625 281.75 C101.875 283.25 101.875 283.25 104.6875 286.0625 C104.78355122 292.24819873 100.89709099 297.46510099 97.875 302.625 C96.69385965 304.67048587 95.51287379 306.71606095 94.33203125 308.76171875 C93.7282666 309.80118652 93.12450195 310.8406543 92.50244141 311.91162109 C90.72652051 314.99475737 88.98810584 318.09593263 87.26171875 321.20703125 C86.72329346 322.17116943 86.18486816 323.13530762 85.63012695 324.12866211 C84.6003902 325.97372071 83.5765925 327.82210892 82.55932617 329.67407227 C82.09373291 330.50092529 81.62813965 331.32777832 81.1484375 332.1796875 C80.74415527 332.90784668 80.33987305 333.63600586 79.92333984 334.38623047 C78.6875 336.0625 78.6875 336.0625 75.6875 337.0625 C68.53608158 330.48662381 61.40779189 323.88642971 54.3125 317.25 C53.65958984 316.6408374 53.00667969 316.0316748 52.33398438 315.40405273 C49.15233722 312.42348374 46.01718627 309.41026851 42.9453125 306.31640625 C40.68549665 304.04100766 38.4010018 301.86918499 35.9375 299.8125 C31.40979017 295.92274537 27.27594481 291.68255992 23.10546875 287.41796875 C20.7251692 284.95525734 20.7251692 284.95525734 17.6875 283.0625 C17.6875 282.4025 17.6875 281.7425 17.6875 281.0625 C16.8521875 280.7221875 16.8521875 280.7221875 16 280.375 C13.05503316 278.70353234 11.00593456 276.50973648 8.6875 274.0625 C8.65957581 275.95824215 8.64070554 277.85411725 8.625 279.75 C8.61339844 280.80574219 8.60179687 281.86148437 8.58984375 282.94921875 C8.61919278 286.36660252 8.89007472 289.74346669 9.17578125 293.1484375 C12.7814672 338.02169776 12.7814672 338.02169776 -0.0625 354.27734375 C-8.78522507 363.72110053 -20.55272449 367.57780417 -33.1953125 368.27734375 C-39.68236027 368.33537897 -45.89305183 367.89124449 -52.3125 367.0625 C-52.30361755 366.07881439 -52.29473511 365.09512878 -52.2855835 364.08163452 C-52.20406705 354.75602579 -52.14432968 345.4304905 -52.10525131 336.10460472 C-52.08448446 331.31144597 -52.05636917 326.51857762 -52.01074219 321.72558594 C-51.96689153 317.08953675 -51.9432812 312.45376473 -51.93299103 307.81752396 C-51.92566934 306.05950185 -51.91137447 304.3014928 -51.88957977 302.54359055 C-51.69613745 286.27602763 -53.68494139 274.07282473 -64.3125 261.0625 C-68.74624925 255.1399673 -71.24388734 250.6779612 -70.3125 243.0625 C-68.77614983 237.78908184 -65.80944339 234.41866381 -61.875 230.6875 C-55.63434568 224.75527999 -51.52387056 217.4928032 -51.18500805 208.7871151 C-51.18375077 207.47640856 -51.1824935 206.16570202 -51.18119812 204.8152771 C-51.17908241 204.08387563 -51.17696669 203.35247417 -51.17478687 202.59890902 C-51.16879368 200.14714175 -51.16978654 197.69542605 -51.1706543 195.24365234 C-51.16762227 193.48591016 -51.1641007 191.72816877 -51.16012573 189.97042847 C-51.15223845 186.18360685 -51.1470924 182.39679465 -51.14383507 178.60996628 C-51.13792083 172.61678949 -51.12137558 166.62367196 -51.10249329 160.63052368 C-51.09615584 158.5777264 -51.08983022 156.52492908 -51.08351612 154.47213173 C-51.08035031 153.44404372 -51.0771845 152.41595572 -51.07392275 151.35671353 C-51.03187207 137.40497453 -50.99888264 123.45326299 -50.98657227 109.50146484 C-50.97818256 100.08978174 -50.95565715 90.67824528 -50.9172166 81.26663554 C-50.89748482 76.28863307 -50.88504178 71.31084969 -50.89005089 66.33280563 C-50.89470949 61.64592538 -50.88082582 56.95945982 -50.85303879 52.27266312 C-50.8461471 50.55788789 -50.84597857 48.8430696 -50.85323906 47.1282959 C-50.90012965 34.80344979 -49.42947404 23.94643438 -41.3125 14.0625 C-40.6525 14.0625 -39.9925 14.0625 -39.3125 14.0625 C-39.085625 13.485 -38.85875 12.9075 -38.625 12.3125 C-34.81331072 5.77817552 -25.8979769 1.16603553 -18.91796875 -1.30859375 C-12.49552895 -2.85883784 -5.91808448 -3.29672791 0 0 Z " fill="#F26F31" transform="translate(1821.3125,60.9375)"/>
<path d="M0 0 C5.16697475 4.91564837 5.84447574 11.29272327 6.05859375 18.19921875 C6.04810835 20.20717275 6.02186163 22.21510156 5.98046875 24.22265625 C5.9753125 25.16882813 5.97015625 26.115 5.96484375 27.08984375 C5.91331548 32.11385035 5.76304927 37.12779529 5.5012207 42.14501953 C4.80176552 55.93789371 4.62456789 69.70385814 4.5546875 83.51171875 C4.54283128 85.52271643 4.53077505 87.53371294 4.51852417 89.54470825 C4.46920075 97.8706112 4.42003944 106.19641484 4.40454102 114.52246094 C4.39432957 119.67914669 4.36471141 124.83542992 4.32322121 129.9919548 C4.31112577 131.92191877 4.30574937 133.85193992 4.30801964 135.78194046 C4.31727276 146.19985721 3.73032932 156.22294087 1.89379883 166.49365234 C1.65148922 167.85044318 1.65148922 167.85044318 1.40428448 169.23464394 C-0.92059578 181.12856585 -6.53213395 191.14223997 -16.26953125 198.59765625 C-32.86812086 209.32046384 -52.11234531 213.77918888 -71.26953125 217.59765625 C-72.49414062 217.84644531 -73.71875 218.09523438 -74.98046875 218.3515625 C-93.49012286 221.43650485 -114.05821946 221.28272401 -132.26953125 216.59765625 C-132.92630859 216.43136719 -133.58308594 216.26507813 -134.25976562 216.09375 C-144.96538609 213.30636569 -154.58002011 208.87691905 -164.26953125 203.59765625 C-165.69265625 202.8396875 -165.69265625 202.8396875 -167.14453125 202.06640625 C-181.0940116 194.21982355 -189.92898361 183.44157233 -194.45445251 168.1209259 C-195.76893502 162.43892719 -195.82709594 156.92920297 -195.78710938 151.11914062 C-195.79411865 149.8408992 -195.80112793 148.56265778 -195.80834961 147.24568176 C-195.82638041 143.78065443 -195.81960083 140.31611048 -195.80683327 136.85107613 C-195.79659911 133.19900478 -195.80612748 129.5469707 -195.81237793 125.89489746 C-195.8196244 119.76563196 -195.8101461 113.6365602 -195.79101562 107.50732422 C-195.76925252 100.45383534 -195.77630604 93.40080921 -195.79832125 86.34733152 C-195.81656147 80.25600629 -195.81899177 74.16481913 -195.80856657 68.07347536 C-195.80237865 64.45085871 -195.80136438 60.82845846 -195.81471252 57.20585632 C-195.82857492 53.16235628 -195.80928183 49.119635 -195.78710938 45.07617188 C-195.7952063 43.89968582 -195.80330322 42.72319977 -195.81164551 41.51106262 C-195.70468648 30.90774621 -193.97585981 19.99168511 -186.24609375 12.1796875 C-177.18750019 4.92923218 -165.0437896 4.22003208 -153.89453125 4.28515625 C-152.88519531 4.2907959 -151.87585938 4.29643555 -150.8359375 4.30224609 C-141.55391658 4.45345321 -131.59862999 4.65541806 -124.72314453 11.75488281 C-119.35788055 18.55653087 -119.80481732 27.50315128 -119.89453125 35.72265625 C-119.89851929 36.72039062 -119.89851929 36.72039062 -119.90258789 37.73828125 C-119.96194891 50.88903091 -120.7654152 63.98950294 -121.55923462 77.11245728 C-122.76016667 97.01523519 -123.60899464 116.87188616 -123.69140625 136.81420898 C-123.70174994 139.2774627 -123.71874411 141.74069825 -123.74267578 144.20385742 C-123.7722393 147.63627613 -123.77368925 151.06748717 -123.765625 154.5 C-123.77673813 155.50900864 -123.78785126 156.51801727 -123.79930115 157.55760193 C-123.72899988 164.73288022 -122.20087003 169.96736077 -117.6640625 175.5859375 C-109.80936766 182.16060799 -102.13074358 183.17916517 -92.00390625 182.9453125 C-85.43862086 182.33410915 -78.89530642 180.85663173 -74.26953125 175.84765625 C-66.82871976 163.75633758 -68.11463443 149.51267018 -67.953125 135.75 C-67.93253645 134.22765244 -67.91167568 132.70530854 -67.89056396 131.18296814 C-67.84689122 127.96402796 -67.80616397 124.7450682 -67.76766968 121.52606201 C-67.72766016 118.18312114 -67.684704 114.84024098 -67.63882446 111.49737549 C-67.4051393 94.46568869 -67.21267564 77.43951418 -67.34765625 60.40625 C-67.35567764 59.19519089 -67.36369904 57.98413177 -67.3719635 56.7363739 C-67.41079446 51.1813932 -67.47086162 45.62820484 -67.57006836 40.07397461 C-67.58907794 38.12093767 -67.60743111 36.16789418 -67.625 34.21484375 C-67.64882751 33.36196274 -67.67265503 32.50908173 -67.69720459 31.63035583 C-67.7288457 24.35550709 -65.6406835 18.49573123 -61.01953125 12.84765625 C-47.72287214 1.96857152 -16.86290343 -7.23271485 0 0 Z " fill="#F26F31" transform="translate(467.26953125,178.40234375)"/>
<path d="M0 0 C3.81531415 3.55218903 6.25966781 7.0690588 8 12 C11.00541384 13.50270692 14.19633129 13.59177948 17.5 13.9375 C18.30590576 14.02322266 19.11181152 14.10894531 19.94213867 14.19726562 C30.14946576 15.21087716 40.39761457 15.70882767 50.640625 16.21459961 C67.68437053 17.09149196 84.62622524 19.04804754 100 27 C101.39992188 27.70382813 101.39992188 27.70382813 102.828125 28.421875 C116.75306514 35.91991969 126.58498008 46.95975298 131.65386009 61.93124771 C134.91114864 73.13881048 135.55647685 83.88780414 135.42578125 95.4921875 C135.42083421 97.21598935 135.41755047 98.93979666 135.41581726 100.66360474 C135.40824887 104.24873502 135.38792091 107.83345581 135.35668945 111.41845703 C135.31718144 115.95507398 135.29907555 120.49142689 135.28938007 125.02819633 C135.27928247 129.43289375 135.25955151 133.83753178 135.23828125 138.2421875 C135.2348855 139.05163692 135.23148975 139.86108635 135.2279911 140.69506454 C135.18309586 149.57087021 135.00106492 158.43087518 134.57885742 167.29736328 C134.54472653 168.08095152 134.51059565 168.86453976 134.47543049 169.67187309 C133.85442747 181.43166728 129.39145679 189.73086765 121 198 C106.99695159 209.53192222 93.10504365 214.07015185 75.26074219 213.23095703 C69.33740957 212.62583039 64.84565432 210.13403781 61 205.6875 C57.85664919 197.2397447 57.87092797 189.86438302 58.25 180.9375 C58.30309408 179.49238704 58.35513967 178.04723526 58.40625 176.60205078 C58.52445112 173.31533055 58.64988748 170.02897323 58.77929688 166.74267578 C59.03480624 160.1924365 59.25868056 153.64116617 59.484375 147.08984375 C59.65528556 142.18486178 59.82741475 137.27992331 60 132.375 C60.04161255 131.18736053 60.0832251 129.99972107 60.12609863 128.77609253 C60.58335973 115.83522349 61.13458461 102.91997997 62 90 C62.95848566 75.6757662 62.95848566 75.6757662 57 63 C50.26206987 55.73631762 42.82543208 52.07239229 33 51 C24.73363686 50.87513047 18.66109479 53.15248183 12.1875 58.1875 C6.63088097 65.33172447 6.48750652 73.76350786 6.26953125 82.5 C6.22947464 83.70951324 6.18941803 84.91902649 6.14814758 86.16519165 C6.04390893 89.43326149 5.95238847 92.70136392 5.86728668 95.96997833 C5.81231334 98.00691637 5.751111 100.04356993 5.68768311 102.08026123 C5.23653847 116.56841336 4.9279674 131.0426181 5.01953125 145.5390625 C5.02586075 146.66189636 5.03219025 147.78473022 5.03871155 148.94158936 C5.07447348 154.19663482 5.13943407 159.44910984 5.24926758 164.703125 C5.58511705 185.45174486 5.58511705 185.45174486 -0.69921875 193.05615234 C-5.41753888 197.60885467 -10.78897766 200.01317709 -16.875 202.25 C-17.70902344 202.57484375 -18.54304687 202.8996875 -19.40234375 203.234375 C-28.18513983 206.60088725 -36.5065609 209.58013537 -46 209.5 C-46.77746582 209.49572998 -47.55493164 209.49145996 -48.35595703 209.48706055 C-56.21083282 209.25507037 -61.9567128 207.11936938 -67.5 201.4375 C-69.70335444 197.85704904 -71.2519688 195.24029677 -71.2419281 190.97322083 C-71.24475988 190.17834826 -71.24759167 189.38347569 -71.25050926 188.56451607 C-71.2431708 187.69864813 -71.23583233 186.83278019 -71.22827148 185.94067383 C-71.22805307 185.01837919 -71.22783466 184.09608456 -71.22760963 183.1458416 C-71.22347253 180.06194451 -71.20395373 176.97836111 -71.18359375 173.89453125 C-71.17575436 171.70050693 -71.16831147 169.50648116 -71.16123962 167.31245422 C-71.05510035 142.01075243 -70.60542275 116.71292899 -70.13116455 91.41595459 C-70.03810054 86.36261994 -69.95132023 81.30918423 -69.86443424 76.25574017 C-69.77894636 71.32874725 -69.68967377 66.40182851 -69.59924126 61.47492409 C-69.55706051 59.15430525 -69.51599098 56.83366591 -69.4761219 54.51300621 C-68.92175941 22.58701973 -68.92175941 22.58701973 -65 17 C-50.32791495 7.1886057 -16.73629499 -9.60787305 0 0 Z " fill="#F26F31" transform="translate(569,177)"/>
<path d="M0 0 C10.28429292 10.02393108 17.38448291 24.03692484 17.69921875 38.55078125 C17.69527434 40.44015434 17.68075181 42.32953167 17.65625 44.21875 C17.6552832 45.57129883 17.6552832 45.57129883 17.65429688 46.95117188 C17.62236713 52.12733866 17.43118508 57.27797021 17.12275696 62.4450531 C16.25039541 77.16948267 16.15336446 91.91087256 15.96875 106.65625 C15.57938691 137.6384276 15.57938691 137.6384276 15.0625 151.265625 C15.03353638 152.15670959 15.00457275 153.04779419 14.97473145 153.96588135 C14.47860464 165.51424212 12.46913888 173.7370589 4.46875 182.40625 C-5.96820171 191.6819859 -14.58937259 195.40625 -28.53125 195.40625 C-33.4371979 194.85249221 -37.08215776 192.94856095 -40.53125 189.40625 C-42.77685876 185.77364759 -44.53125 182.72636507 -44.53125 178.40625 C-45.22347656 178.68339844 -45.91570312 178.96054687 -46.62890625 179.24609375 C-62.23659352 185.02443383 -77.56806329 184.59166772 -92.72265625 177.8125 C-110.10943229 169.10702103 -123.7630244 153.9012874 -130.52734375 135.73046875 C-135.66729316 119.13015367 -133.96953066 101.28281131 -126.21875 85.78125 C-117.33270553 70.32725961 -104.93869122 58.20881138 -87.4921875 53.18359375 C-76.26307128 50.19158264 -65.84890192 49.24251902 -54.28125 49.28125 C-52.52554687 49.27544922 -52.52554687 49.27544922 -50.734375 49.26953125 C-49.6103125 49.27082031 -48.48625 49.27210938 -47.328125 49.2734375 C-46.31073242 49.27456543 -45.29333984 49.27569336 -44.24511719 49.27685547 C-41.8421162 49.3914282 -39.82597914 49.71728392 -37.53125 50.40625 C-37.59177416 47.40425175 -37.67900611 44.40688578 -37.78125 41.40625 C-37.79542969 40.56707031 -37.80960938 39.72789062 -37.82421875 38.86328125 C-38.03248929 33.48990131 -38.97790522 29.66807936 -41.68261719 25 C-42.53125 23.40625 -42.53125 23.40625 -42.53125 21.40625 C-49.65126111 17.69783717 -49.65126111 17.69783717 -57.53125 17.40625 C-62.87310084 20.84877609 -66.47027264 25.83613654 -70.3828125 30.78515625 C-72.31948172 33.14789269 -74.33106508 35.29068757 -76.53125 37.40625 C-76.20125 38.169375 -75.87125 38.9325 -75.53125 39.71875 C-74.53125 42.40625 -74.53125 42.40625 -74.53125 45.40625 C-80.32866661 46.12604548 -86.12699334 46.83782383 -91.92626953 47.54248047 C-93.89528358 47.7828402 -95.86404077 48.0253146 -97.83251953 48.27001953 C-100.67674414 48.62320505 -103.52183341 48.96854684 -106.3671875 49.3125 C-107.23427338 49.4218689 -108.10135925 49.53123779 -108.99472046 49.6439209 C-114.86543852 50.34344425 -120.62126442 50.53041971 -126.53125 50.40625 C-126.02514852 30.41524156 -123.52731541 11.83461212 -109.1875 -3.24609375 C-78.17785786 -30.65314511 -29.96647099 -25.73591038 0 0 Z M-63.53125 84.21875 C-64.7996875 84.72341797 -64.7996875 84.72341797 -66.09375 85.23828125 C-68.55678807 86.41848699 -70.49914865 87.58141397 -72.53125 89.40625 C-77.34953793 103.60751968 -77.95279893 122.90990927 -71.78125 136.71875 C-69.13416569 141.56193388 -65.9202016 144.52337658 -60.65625 146.46875 C-55.24319222 146.36048884 -51.52206556 144.31891371 -47.640625 140.58984375 C-42.51848975 134.54349714 -40.0087 127.84735425 -37.53125 120.40625 C-37.09425781 119.41367187 -36.65726563 118.42109375 -36.20703125 117.3984375 C-34.96839592 114.13887084 -34.37298282 111.90131679 -34.53125 108.40625 C-36.85715306 103.78017289 -39.78151723 99.97806023 -43.13134766 96.05175781 C-45.17629374 93.64803675 -47.09123787 91.14491621 -49.03125 88.65625 C-50.80356961 86.4626413 -52.53710631 84.40039369 -54.53125 82.40625 C-58.33030713 82.40625 -60.11075133 82.82656533 -63.53125 84.21875 Z " fill="#F26F31" transform="translate(1730.53125,202.59375)"/>
<path d="M0 0 C3.09442486 2.94188279 5.52203043 5.86796682 7.1875 9.8125 C10.6789087 14.02626912 17.55272697 13.73046679 22.7684021 14.30490112 C25.58760914 14.55503205 28.40715371 14.76656205 31.23046875 14.96484375 C33.35482903 15.12680469 35.47917763 15.28891892 37.60351562 15.45117188 C40.88951862 15.69533082 44.17569717 15.93664556 47.4621582 16.17456055 C79.02539868 18.48105946 105.62896189 25.18842187 127.59765625 49.7890625 C132.48366212 56.02833531 134.68326563 63.43948494 134.4140625 71.33203125 C131.94762499 87.22426536 119.90834767 102.21943383 107.32421875 111.53125 C96.62421508 118.29293299 84.21151908 119.53990147 72 116.875 C65.96607445 115.225159 61.08852728 112.59660305 56 109 C55.37480469 108.57074219 54.74960938 108.14148438 54.10546875 107.69921875 C48.45652452 103.3764375 44.25657444 97.26890579 41 91 C42.09388084 87.71835749 42.63905172 87.24961864 45.31640625 85.29296875 C46.34024414 84.5359668 46.34024414 84.5359668 47.38476562 83.76367188 C48.10341797 83.24353516 48.82207031 82.72339844 49.5625 82.1875 C50.25408203 81.67896484 50.94566406 81.17042969 51.65820312 80.64648438 C54.53309 78.53251816 57.40962257 76.42230377 60.31201172 74.34619141 C61.04307129 73.81558105 61.77413086 73.2849707 62.52734375 72.73828125 C63.1937085 72.26044189 63.86007324 71.78260254 64.54663086 71.2902832 C65.26604858 70.65159302 65.26604858 70.65159302 66 70 C66 69.34 66 68.68 66 68 C58.9430621 63.87094059 51.85630823 59.8237039 44.5625 56.125 C43.47066406 55.57070312 42.37882812 55.01640625 41.25390625 54.4453125 C34.08151957 51.25949849 27.47661377 49.67739864 19.875 52.1875 C14.67509221 54.34993747 11.84295972 57.37429196 9.25 62.375 C6.45925398 70.46816345 6.71104766 78.96900762 6.5 87.4375 C6.47943542 88.1826889 6.45887085 88.92787781 6.43768311 89.69564819 C6.1070971 101.71401396 5.95042445 113.73217959 5.84264374 125.75420189 C5.82027732 128.18350808 5.7960208 130.61278767 5.77105713 133.04206848 C5.75863417 134.25396866 5.75863417 134.25396866 5.74596024 135.49035168 C5.7290951 137.13109008 5.71214485 138.77182762 5.69511032 140.41256428 C5.64542398 145.32920053 5.60968692 150.24571109 5.58346748 155.16252518 C5.56382114 158.28817599 5.53205113 161.41362598 5.49737167 164.53914261 C5.48366383 166.00838968 5.47506506 167.47769467 5.47195816 168.94700241 C5.42795438 187.08287508 5.42795438 187.08287508 -0.5625 193.5 C-6.72124133 199.21416127 -15.29770552 201.97562853 -23 205 C-24.14339844 205.46019531 -25.28679688 205.92039062 -26.46484375 206.39453125 C-36.55005542 209.99366732 -48.56453221 211.07524275 -58.75 207.25 C-60.18905566 206.54390987 -61.61048395 205.79918057 -63 205 C-63.969375 204.443125 -64.93875 203.88625 -65.9375 203.3125 C-72.24266409 196.2430736 -71.36290473 186.60654338 -71.17285156 177.7097168 C-71.15388285 176.28274716 -71.13628191 174.85575879 -71.11993408 173.42875671 C-71.07181565 169.57239052 -71.00441451 165.71658102 -70.9332552 161.86058021 C-70.86146032 157.79952905 -70.80699585 153.73824276 -70.75042725 149.67695618 C-70.65287191 142.84686526 -70.54383674 136.01703885 -70.42675781 129.18725586 C-70.26282603 119.62221028 -70.12081591 110.05693069 -69.98268175 100.49148309 C-69.88520606 93.80408187 -69.78207124 87.11676592 -69.67811871 80.42946267 C-69.65324197 78.82531144 -69.62854955 77.22115733 -69.60404682 75.61700034 C-69.44282305 65.07695011 -69.25510968 54.53824532 -69 44 C-68.97443527 42.91153904 -68.94887054 41.82307808 -68.92253113 40.70163345 C-68.84855931 37.88321179 -68.75375527 35.06663104 -68.64746094 32.24926758 C-68.62741123 31.47549869 -68.60736153 30.70172979 -68.58670425 29.90451336 C-68.37519905 25.26411897 -67.4758042 21.93900147 -65 18 C-54.8169527 10.26088405 -41.71585113 5.48351287 -29.8125 1.0625 C-29.02319092 0.76811035 -28.23388184 0.4737207 -27.4206543 0.17041016 C-18.17916536 -3.17012591 -8.90638565 -5.11292509 0 0 Z " fill="#F26F31" transform="translate(1007,184)"/>
<path d="M0 0 C3.60982005 2.99261989 6.86816117 6.25585638 10.125 9.625 C10.98609375 10.48351562 11.8471875 11.34203125 12.734375 12.2265625 C19 18.59164187 19 18.59164187 19 22 C18.02561478 22.56852692 17.05122955 23.13705383 16.0473175 23.72280884 C12.67882889 25.72487434 12.67882889 25.72487434 12.24723816 29.36044312 C12.21524472 30.71827217 12.21612776 32.07711695 12.24291992 33.43505859 C12.23387383 34.18191138 12.22482773 34.92876417 12.21550751 35.69824886 C12.19237686 38.1823606 12.21150618 40.66431884 12.23046875 43.1484375 C12.2220704 44.90196702 12.21093449 46.65548532 12.19721985 48.40898132 C12.17350584 52.13295177 12.1680049 55.85631932 12.17724609 59.58035278 C12.19149454 65.37339416 12.16610504 71.16580133 12.1328125 76.95874023 C12.09653889 83.62917073 12.06794722 90.29951359 12.05155373 96.97002316 C12.01937639 109.42077005 11.86124597 121.86448826 11.56533813 134.31207275 C11.5026108 136.95259764 11.44642358 139.59319263 11.39135742 142.23388672 C11.21419435 150.25971932 10.93472715 158.27837986 10.546875 166.296875 C10.5116272 167.07865616 10.47637939 167.86043732 10.44006348 168.66590881 C9.96256398 177.81916742 8.19166317 186.86834836 2 194 C1.34 194 0.68 194 0 194 C-0.33 194.99 -0.66 195.98 -1 197 C-2.9609375 198.3515625 -2.9609375 198.3515625 -5.375 199.625 C-6.56222656 200.26308594 -6.56222656 200.26308594 -7.7734375 200.9140625 C-13.78357341 203.84532177 -20.30126117 203.97223992 -26.734375 202.28125 C-35.85245174 198.85506359 -41.20246032 193.34490615 -46 185 C-46.92241527 182.23275418 -47.12555633 180.60056751 -47.12698364 177.74824524 C-47.13121338 176.44515411 -47.13121338 176.44515411 -47.13552856 175.11573792 C-47.13249222 173.68813393 -47.13249222 173.68813393 -47.12939453 172.23168945 C-47.13114685 171.22570709 -47.13289917 170.21972473 -47.13470459 169.18325806 C-47.13913257 165.82658192 -47.13617198 162.46995803 -47.1328125 159.11328125 C-47.13348761 156.74391164 -47.13445936 154.3745421 -47.13571167 152.00517273 C-47.13719177 146.99880321 -47.13503267 141.99245144 -47.13037109 136.98608398 C-47.1259005 131.95091565 -47.12571444 126.91578338 -47.13037109 121.88061523 C-47.14599646 104.91994826 -47.10585404 87.96035158 -47 71 C-46.99350937 69.83039482 -46.98701874 68.66078964 -46.98033142 67.45574188 C-46.94096351 60.69397412 -46.87900686 53.93310456 -46.78292465 47.17189598 C-46.75616239 45.11634834 -46.73571579 43.06070691 -46.72217178 41.00502968 C-46.62310233 27.28398127 -46.26883193 14.35622624 -36 4 C-24.29210028 -5.64852974 -13.21374538 -8.38499786 0 0 Z " fill="#F26F31" transform="translate(1981,207)"/>
<path d="M0 0 C9.33641894 5.93373843 16.49852932 14.41110609 21.5 24.1875 C21.88027344 24.85523438 22.26054688 25.52296875 22.65234375 26.2109375 C24.2416052 29.91677294 23.52964046 33.38150758 22.5 37.1875 C15.97415227 50.72863404 2.89841284 59.44239232 -10.33203125 65.55859375 C-13.25719884 66.40715588 -15.467454 66.55770691 -18.5 66.1875 C-20.73828125 64.38671875 -20.73828125 64.38671875 -22.8125 61.875 C-23.57820313 60.95976562 -24.34390625 60.04453125 -25.1328125 59.1015625 C-25.91398437 58.13992187 -26.69515625 57.17828125 -27.5 56.1875 C-28.67175781 54.83785156 -28.67175781 54.83785156 -29.8671875 53.4609375 C-42.58822814 38.59830752 -42.58822814 38.59830752 -43.1875 29.625 C-42.25444019 18.88529111 -34.74369248 11.21413547 -27.02246094 4.44091797 C-19.15783 -2.03390808 -9.4947164 -4.62042349 0 0 Z " fill="#F26F31" transform="translate(1957.5,135.8125)"/>
</svg>
