<svg width="100" height="29" viewBox="0 0 100 29" fill="none" xmlns="http://www.w3.org/2000/svg">
<path d="M28.2611 14.1305C28.2611 21.9346 21.9346 28.2611 14.1305 28.2611C6.32645 28.2611 0 21.9346 0 14.1305C0 6.32645 6.32645 0 14.1305 0C21.9346 0 28.2611 6.32645 28.2611 14.1305Z" fill="white"/>
<path d="M14.1303 0C9.76077 0 5.85501 1.98452 3.26325 5.09995C3.73474 7.44292 4.40768 9.5342 5.26709 11.3211C4.97821 12.0738 4.76468 12.8419 4.65357 13.5641L3.97629 17.2419C2.67678 15.6631 1.40868 13.5762 0.392266 10.8265C0.138163 11.8873 0 12.9926 0 14.1303C0 17.6897 1.31883 20.9389 3.49078 23.4239L5.2869 13.6718C5.37531 13.0984 5.53231 12.4955 5.74052 11.897C5.76806 11.8173 5.79511 11.738 5.82506 11.6574C5.86322 11.555 5.90429 11.4525 5.94535 11.3506C5.97337 11.281 6.00187 11.2115 6.03182 11.1414C6.07626 11.0371 6.12264 10.9337 6.16998 10.8313C6.20428 10.7569 6.24003 10.683 6.27626 10.6086C6.32312 10.5125 6.37046 10.4163 6.41974 10.3221C6.4724 10.2212 6.52892 10.1207 6.58592 10.0197C6.62457 9.9511 6.66128 9.88106 6.70138 9.81391C8.04581 7.54485 10.4033 5.45308 14.1796 5.45308C14.1849 5.45308 14.1892 5.45308 14.1941 5.45308C17.7322 5.45791 20.836 7.58929 22.1022 10.881C23.3925 14.2361 22.4824 17.8699 19.7264 20.365C17.153 22.694 13.0888 23.1331 9.37333 21.4838C9.22454 21.4177 9.06464 21.3423 8.89942 21.2597L9.72164 16.7969C10.1675 17.095 10.6303 17.3544 11.1115 17.5679C13.2805 18.5312 15.5346 18.381 16.852 17.1887C18.2858 15.8907 18.7539 14.1071 18.1046 12.4187C17.6071 11.124 16.3163 9.73951 14.1887 9.73661C14.1863 9.73661 14.1834 9.73661 14.181 9.73661C10.367 9.73661 9.59314 13.8829 9.51729 14.3564L9.50666 14.4182L7.28301 26.4905C9.31198 27.6171 11.6463 28.2611 14.1317 28.2611C21.936 28.2611 28.262 21.9346 28.262 14.1308C28.2611 6.3265 21.9346 0 14.1303 0Z" fill="#E83330"/>
<path d="M53.0467 8.29028C51.4585 8.22556 49.973 8.77414 48.6313 9.91958C47.2969 11.0599 46.4771 12.4488 46.1956 14.0483C45.9193 15.6119 46.2285 16.9843 47.113 18.1277C48.0026 19.2773 49.2323 19.8875 50.7691 19.9389C50.8318 19.9409 50.8935 19.9419 50.9561 19.9419C52.2618 19.9368 53.5326 19.5166 54.5835 18.7431L54.5034 19.1992C54.4623 19.4334 54.6184 19.6564 54.8527 19.6985C54.8773 19.7026 54.902 19.7046 54.9277 19.7046H56.3012C56.5097 19.7046 56.6885 19.5546 56.7254 19.3492L57.6356 14.188C57.9603 12.6337 57.6664 11.2623 56.7634 10.1086C55.8594 8.95495 54.6071 8.34267 53.0467 8.29028ZM53.8778 16.6628C53.0056 17.4333 52.0841 17.7815 51.066 17.7425C50.2165 17.7332 49.4224 17.3172 48.9313 16.6227C48.4022 15.9026 48.2389 15.0797 48.4331 14.1038C48.6211 13.096 49.1635 12.1889 49.9607 11.5448C50.7106 10.8678 51.6834 10.4908 52.6943 10.4887C53.6137 10.4887 54.3195 10.8144 54.8506 11.4842C55.3899 12.1653 55.58 12.9686 55.43 13.9404C55.2605 15.0068 54.7089 15.9735 53.8778 16.6628Z" fill="#182229"/>
<path d="M82.9549 8.29028C81.3687 8.22556 79.8812 8.77414 78.5395 9.91958C77.2051 11.0599 76.3853 12.4488 76.1038 14.0483C75.8275 15.6119 76.1367 16.9843 77.0212 18.1277C77.9108 19.2773 79.1405 19.8875 80.6774 19.9389C80.74 19.9409 80.8017 19.9419 80.8643 19.9419C82.17 19.9368 83.4408 19.5166 84.4917 18.7431L84.4116 19.1992C84.3705 19.4334 84.5266 19.6564 84.7609 19.6985C84.7855 19.7026 84.8102 19.7046 84.8359 19.7046H86.2094C86.4179 19.7046 86.5967 19.5546 86.6336 19.3492L87.5438 14.188C87.8685 12.6337 87.5746 11.2623 86.6717 10.1086C85.7666 8.95495 84.5153 8.34267 82.9549 8.29028ZM83.786 16.6628C82.9138 17.4333 81.9913 17.7815 80.9742 17.7425C80.1247 17.7332 79.3306 17.3172 78.8395 16.6227C78.3104 15.9026 78.1471 15.0797 78.3413 14.1038C78.5293 13.096 79.0717 12.1889 79.8689 11.5448C80.6188 10.8678 81.5916 10.4908 82.6025 10.4887C83.5219 10.4887 84.2277 10.8144 84.7588 11.4842C85.2982 12.1653 85.4882 12.9686 85.3382 13.9404C85.1687 15.0068 84.617 15.9735 83.786 16.6628Z" fill="#182229"/>
<path d="M98.9796 10.1105C98.0868 8.95482 96.8469 8.34254 95.2936 8.29014C93.7198 8.24083 92.2374 8.7925 90.8968 9.93794C89.5623 11.0772 88.7425 12.4661 88.46 14.0667C88.1847 15.6302 88.4918 17.0027 89.3743 18.1461C90.2629 19.2967 91.5029 19.8997 93.0561 19.9387C93.1229 19.9408 93.1907 19.9418 93.2575 19.9418C94.7594 19.9418 96.173 19.3871 97.4622 18.2909C98.8029 17.1506 99.6237 15.774 99.9021 14.1982C100.177 12.6356 99.8672 11.2601 98.9796 10.1105ZM93.3294 17.7413C92.4788 17.7475 91.6785 17.3355 91.1895 16.639C90.6656 15.9168 90.5054 15.0919 90.6995 14.1119C90.8896 13.0989 91.432 12.1867 92.2312 11.5374C92.9647 10.8656 93.9222 10.4917 94.9166 10.4886C94.932 10.4886 94.9474 10.4886 94.9618 10.4886C95.8812 10.4886 96.5829 10.8142 97.1078 11.4851C97.643 12.1692 97.8362 12.9757 97.6965 13.9516C97.5342 14.9953 97.0256 15.886 96.1432 16.6709C95.271 17.4465 94.3536 17.7947 93.3294 17.7413Z" fill="#182229"/>
<path d="M40.5867 8.30869C39.018 8.25938 37.5295 8.81208 36.1827 9.95649C34.8421 11.0958 34.0212 12.4734 33.7439 14.0472L32.3991 21.6729C32.358 21.9071 32.5142 22.13 32.7484 22.1721C32.7731 22.1762 32.7977 22.1783 32.8234 22.1783H34.161C34.3695 22.1783 34.5483 22.0283 34.5852 21.8228L35.141 18.6721C35.9783 19.4744 37.0538 19.9069 38.3523 19.9593C39.9293 20.0107 41.4086 19.4559 42.7492 18.3115C44.0837 17.1712 44.9034 15.7823 45.186 14.1828C45.4613 12.6192 45.1541 11.2468 44.2717 10.1044C43.382 8.95178 42.1421 8.34773 40.5867 8.30869ZM38.6718 17.7599C37.737 17.7599 37.024 17.4332 36.4909 16.7613C35.9495 16.0792 35.7594 15.2728 35.9094 14.2989C36.0717 13.2541 36.5803 12.3645 37.4658 11.5786C38.2804 10.8543 39.1352 10.501 40.0792 10.501C40.1481 10.501 40.2169 10.503 40.2868 10.5061C41.1394 10.4999 41.9417 10.9119 42.4328 11.6094C42.9588 12.3326 43.1262 13.1586 42.9434 14.1335C42.743 15.1444 42.1945 16.0525 41.3932 16.7007C40.5559 17.4137 39.6652 17.7599 38.6718 17.7599Z" fill="#182229"/>
<path d="M70.9081 8.38059C69.9517 8.42682 69.0292 8.7494 68.2526 9.31031L68.7323 6.58796C68.7734 6.35373 68.6173 6.13081 68.383 6.08869C68.3584 6.08458 68.3337 6.08252 68.308 6.08252H66.9345C66.726 6.08252 66.5472 6.23251 66.5103 6.43797L64.2605 19.1991C64.2194 19.4333 64.3755 19.6563 64.6098 19.6984C64.6344 19.7025 64.6591 19.7045 64.6847 19.7045H66.0582C66.2668 19.7045 66.4455 19.5546 66.4825 19.3491L67.5591 13.2408C67.6834 12.4816 68.0882 11.7964 68.6933 11.3218C69.2829 10.8225 70.0298 10.5461 70.8023 10.541C71.4762 10.4958 72.1306 10.7793 72.56 11.3012C73.0069 11.8241 73.1836 12.5268 73.0347 13.1986L71.9765 19.1981C71.9354 19.4323 72.0916 19.6552 72.3258 19.6973C72.3505 19.7015 72.3751 19.7035 72.4008 19.7035H73.7743C73.9829 19.7035 74.1616 19.5535 74.1986 19.3481L75.231 13.4935C75.4868 12.0419 75.1868 10.7978 74.3393 9.79724C73.4877 8.79049 72.332 8.30971 70.9081 8.38059Z" fill="#182229"/>
<path d="M61.978 10.6694H64.0018C64.2103 10.6694 64.3891 10.5194 64.4261 10.314L64.6521 9.03088C64.6932 8.79666 64.537 8.57373 64.3028 8.53162C64.2781 8.52751 64.2535 8.52545 64.2278 8.52545H62.3561L62.6971 6.58796C62.7382 6.35373 62.5821 6.13081 62.3478 6.08869C62.3232 6.08458 62.2985 6.08252 62.2729 6.08252H60.8994C60.6908 6.08252 60.5121 6.23251 60.4751 6.43797L60.1073 8.52442H59.5464C59.3379 8.52442 59.1591 8.6744 59.1221 8.87986L58.8961 10.163C58.855 10.3972 59.0112 10.6201 59.2454 10.6622C59.2701 10.6663 59.2947 10.6684 59.3204 10.6684H59.7303L58.7523 16.2169C58.5561 17.3325 58.7235 18.217 59.2526 18.8467C59.8505 19.5597 60.9004 19.9213 62.3715 19.9213C62.58 19.9213 62.7588 19.7713 62.7958 19.5659L62.9961 18.4276C63.0372 18.1934 62.881 17.9705 62.6468 17.9283C62.6221 17.9242 62.5975 17.9222 62.5718 17.9222C61.9041 17.9222 61.4438 17.7763 61.2024 17.4887C60.9682 17.2103 60.9055 16.7531 61.0154 16.1326L61.978 10.6694Z" fill="#182229"/>
</svg>
